<?xml version="1.0" encoding="UTF-8" standalone="no"?>
<!-- Created with Inkscape (http://www.inkscape.org/) -->

<svg
   width="37.835415mm"
   height="37.835411mm"
   viewBox="0 0 37.835415 37.835411"
   version="1.1"
   id="svg1"
   xml:space="preserve"
   xmlns="http://www.w3.org/2000/svg"
   xmlns:svg="http://www.w3.org/2000/svg"><defs
     id="defs1" /><g
     id="layer5"
     style="display:inline"
     transform="translate(-68.129175,-109.48066)"><g
       id="g64"
       style="display:inline"><path
         style="display:inline;opacity:1;fill:#478061;fill-opacity:1;fill-rule:nonzero;stroke:none;stroke-width:0;stroke-linecap:round;stroke-linejoin:round;stroke-dasharray:none;stroke-opacity:1"
         d="m 71.754793,117.33909 a 18.917707,18.917707 0 0 0 -3.625618,11.05927 18.917707,18.917707 0 0 0 18.917708,18.91771 18.917707,18.917707 0 0 0 11.088729,-3.59616 l -4.35684,-4.35684 a 12.892041,12.892041 0 0 1 -6.731889,1.92701 12.892041,12.892041 0 0 1 -12.891719,-12.89172 12.892041,12.892041 0 0 1 1.927014,-6.73137 z"
         id="path64" /><path
         style="display:inline;opacity:1;fill:#abc2ab;fill-opacity:1;fill-rule:nonzero;stroke:none;stroke-width:0;stroke-linecap:round;stroke-linejoin:round;stroke-dasharray:none;stroke-opacity:1"
         d="m 87.046883,109.48066 a 18.917707,18.917707 0 0 0 -11.059273,3.62561 l 4.327384,4.32739 a 12.892041,12.892041 0 0 1 6.731889,-1.92753 12.892041,12.892041 0 0 1 12.892236,12.89223 12.892041,12.892041 0 0 1 -1.92753,6.73189 l 4.356841,4.35736 a 18.917707,18.917707 0 0 0 3.59616,-11.08925 18.917707,18.917707 0 0 0 -18.917707,-18.9177 z"
         id="path58" /></g></g><g
     id="layer3"
     style="display:inline"
     transform="translate(-68.129175,-109.48066)"><path
       id="path55"
       style="display:inline;opacity:1;fill:#3f48cc;fill-opacity:1;stroke:none;stroke-width:0;stroke-linecap:butt;stroke-linejoin:miter;stroke-dasharray:none;stroke-opacity:1"
       d="m 80.307417,134.71778 7.308716,-7.3272 -4.286778,-5.31172 -4.929898,10e-6 5.020506,5.78045 -6.842226,6.85846 z m 13.48173,-12.63891 -7.377039,7.39382 4.365294,5.24452 4.874008,6.6e-4 -4.997211,-5.75917 6.861828,-6.87975 z" /></g></svg>
