<?xml version="1.0" encoding="UTF-8" standalone="no"?>
<!-- Created with Inkscape (http://www.inkscape.org/) -->

<svg
   width="37.835003mm"
   height="37.834991mm"
   viewBox="0 0 37.835003 37.834991"
   version="1.1"
   id="svg1"
   xml:space="preserve"
   xmlns="http://www.w3.org/2000/svg"
   xmlns:svg="http://www.w3.org/2000/svg"><defs
     id="defs1" /><g
     id="layer5"
     style="display:inline"
     transform="translate(-68.128999,-109.48101)"><g
       id="g8"
       transform="matrix(0.67942488,0,0,0.67942488,29.471419,43.163868)"
       style="display:inline"><path
         d="m 189.37588,190.56963 -23.90269,-23.90268 c -11.27745,6.89859 -24.23629,10.55974 -37.45637,10.58221 -39.772417,8e-5 -72.014343,-32.24185 -72.014264,-72.01426 0.03183,-13.215382 3.699547,-26.167196 10.60151,-37.437081 L 42.656067,43.849832 C 29.76725,61.725769 22.815686,83.196977 22.781918,105.2349 c 0,58.11962 47.115274,105.2349 105.234902,105.2349 22.03188,-0.0468 43.49344,-7.00726 61.35906,-19.90017 z"
         fill="#478061"
         id="path7"
         style="display:inline"
         transform="matrix(0.26458333,0,0,0.26458333,50.869789,97.607747)" /><path
         d="M 128.01682,0 C 105.98494,0.04678314 84.523372,7.0072685 66.657757,19.900168 l 23.902685,23.902684 c 11.277448,-6.898594 24.236288,-10.559734 37.456378,-10.582214 39.77241,-7.9e-5 72.01434,32.241846 72.01426,72.014262 -0.0318,13.21538 -3.69956,26.16719 -10.60151,37.43708 l 23.94799,23.94799 c 12.8888,-17.87595 19.8404,-39.34715 19.87417,-61.38507 C 233.25173,47.115274 186.13644,0 128.01682,0 Z"
         fill="#abc2ab"
         id="path8"
         style="display:inline"
         transform="matrix(0.26458333,0,0,0.26458333,50.869789,97.607747)" /></g></g><g
     id="layer3"
     style="display:inline"
     transform="translate(-68.128999,-109.48101)"><path
       id="path55"
       style="display:inline;opacity:1;fill:#3f48cc;fill-opacity:1;stroke:none;stroke-width:0;stroke-linecap:butt;stroke-linejoin:miter;stroke-dasharray:none;stroke-opacity:1"
       d="m 80.307417,134.71778 7.308716,-7.3272 -4.286778,-5.31172 -4.929898,10e-6 5.020506,5.78045 -6.842226,6.85846 z m 13.48173,-12.63891 -7.377039,7.39382 4.365294,5.24452 4.874008,6.6e-4 -4.997211,-5.75917 6.861828,-6.87975 z" /></g></svg>
